<?xml version="1.0" encoding="UTF-8" standalone="no"?>
<!-- Created with Inkscape (http://www.inkscape.org/) -->

<svg
   width="400"
   height="400"
   viewBox="0 0 105.83333 105.83333"
   version="1.1"
   id="svg5"
   xml:space="preserve"
   inkscape:version="1.2.2 (b0a8486541, 2022-12-01)"
   sodipodi:docname="q4os.svg"
   xmlns:inkscape="http://www.inkscape.org/namespaces/inkscape"
   xmlns:sodipodi="http://sodipodi.sourceforge.net/DTD/sodipodi-0.dtd"
   xmlns="http://www.w3.org/2000/svg"
   xmlns:svg="http://www.w3.org/2000/svg"><sodipodi:namedview
     id="namedview7"
     pagecolor="#ffffff"
     bordercolor="#666666"
     borderopacity="1.0"
     inkscape:showpageshadow="2"
     inkscape:pageopacity="0.0"
     inkscape:pagecheckerboard="0"
     inkscape:deskcolor="#d1d1d1"
     inkscape:document-units="mm"
     showgrid="false"
     inkscape:zoom="0.70644641"
     inkscape:cx="373.70138"
     inkscape:cy="562.67538"
     inkscape:window-width="1854"
     inkscape:window-height="999"
     inkscape:window-x="0"
     inkscape:window-y="0"
     inkscape:window-maximized="1"
     inkscape:current-layer="g212" /><defs
     id="defs2" /><g
     inkscape:label="Layer 1"
     inkscape:groupmode="layer"
     id="layer1"><g
       id="g212"
       transform="matrix(0.26458333,0,0,0.26458333,45.181547,91.200777)"><g
         id="g326"
         transform="matrix(2.9167487,0,0,2.9219689,-170.7649,-344.69586)"><path
           fill="#ff5623"
           d="M 73.658,92.7033 94.177,72.1849 131.788,109.795 111.313,130.27 Z"
           id="path184" /><path
           fill="#4489ff"
           d="m 74.338,0 v 46.2982 c 8.082,1.7938 13.661,7.9924 15.686,16.0195 h 47.115 C 134.369,28.2475 108.436,2.4052 74.338,0 Z"
           id="path186" /><path
           fill="#3f51b5"
           d="M 63.028,0.0586 C 29.2517,2.8217 2.7464,28.5396 0,62.3173 l 47.565,4e-4 C 49.497,54.657 55.406,48.6313 63.028,46.5502 Z"
           id="path188" /><path
           fill="#2f3e9f"
           d="M 0.0194,73.9163 C 2.9946,107.483 29.1415,134.146 62.728,136.894 V 89.0943 c -7.262,-1.982 -13.296,-7.976 -15.484,-15.178 z"
           id="path190" /></g></g></g></svg>
